<svg width="141" height="63" viewBox="0 0 141 63" fill="none" xmlns="http://www.w3.org/2000/svg">
<rect x="1.5" y="1.5" width="138" height="60" rx="18.5" stroke="#FF4B4B" stroke-width="3"/>
<path d="M64.1266 21.1818V43H60.611L50.3304 28.1385H50.1493V43H46.1969V21.1818H49.7338L60.0037 36.054H60.1955V21.1818H64.1266ZM95.3704 32.0909C95.3704 34.4418 94.93 36.4553 94.0494 38.1314C93.1758 39.8004 91.9826 41.0788 90.4698 41.9666C88.9641 42.8544 87.256 43.2983 85.3455 43.2983C83.435 43.2983 81.7234 42.8544 80.2106 41.9666C78.7049 41.0717 77.5117 39.7898 76.631 38.1207C75.7575 36.4446 75.3207 34.4347 75.3207 32.0909C75.3207 29.7401 75.7575 27.7301 76.631 26.0611C77.5117 24.3849 78.7049 23.103 80.2106 22.2152C81.7234 21.3274 83.435 20.8835 85.3455 20.8835C87.256 20.8835 88.9641 21.3274 90.4698 22.2152C91.9826 23.103 93.1758 24.3849 94.0494 26.0611C94.93 27.7301 95.3704 29.7401 95.3704 32.0909ZM91.3967 32.0909C91.3967 30.4361 91.1374 29.0405 90.619 27.9041C90.1076 26.7607 89.3974 25.8977 88.4883 25.3153C87.5792 24.7259 86.5316 24.4311 85.3455 24.4311C84.1594 24.4311 83.1119 24.7259 82.2028 25.3153C81.2937 25.8977 80.5799 26.7607 80.0614 27.9041C79.5501 29.0405 79.2944 30.4361 79.2944 32.0909C79.2944 33.7457 79.5501 35.1449 80.0614 36.2884C80.5799 37.4247 81.2937 38.2876 82.2028 38.8771C83.1119 39.4595 84.1594 39.7507 85.3455 39.7507C86.5316 39.7507 87.5792 39.4595 88.4883 38.8771C89.3974 38.2876 90.1076 37.4247 90.619 36.2884C91.1374 35.1449 91.3967 33.7457 91.3967 32.0909Z" fill="#FF9A9E"/>
</svg>
