<svg width="537" height="327" viewBox="0 0 537 327" fill="none" xmlns="http://www.w3.org/2000/svg">
<rect width="537" height="327" rx="10" fill="white"/>
<path d="M27.3786 58H21.7536L31.995 28.9091H38.5007L48.7564 58H43.1314L35.3615 34.875H35.1342L27.3786 58ZM27.5632 46.5938H42.9041V50.8267H27.5632V46.5938ZM52.3608 58V36.1818H57.3466V39.8182H57.5739C57.9716 38.5587 58.6534 37.5881 59.6193 36.9062C60.5947 36.215 61.7074 35.8693 62.9574 35.8693C63.2415 35.8693 63.5587 35.8835 63.9091 35.9119C64.2689 35.9309 64.5672 35.964 64.804 36.0114V40.7415C64.5862 40.6657 64.2405 40.5994 63.767 40.5426C63.303 40.4763 62.8532 40.4432 62.4176 40.4432C61.4801 40.4432 60.6373 40.6468 59.8892 41.054C59.1506 41.4517 58.5682 42.0057 58.142 42.7159C57.7159 43.4261 57.5028 44.2453 57.5028 45.1733V58H52.3608ZM76.9808 58.4261C74.7933 58.4261 72.9041 57.9716 71.3132 57.0625C69.7318 56.1439 68.5149 54.8466 67.6626 53.1705C66.8104 51.4848 66.3842 49.5009 66.3842 47.2188C66.3842 44.9744 66.8104 43.0047 67.6626 41.3097C68.5244 39.6051 69.727 38.2794 71.2706 37.3324C72.8142 36.3759 74.6276 35.8977 76.7109 35.8977C78.0556 35.8977 79.3246 36.1155 80.5178 36.5511C81.7204 36.9773 82.781 37.6402 83.6996 38.5398C84.6276 39.4394 85.3568 40.5852 85.8871 41.9773C86.4174 43.3598 86.6825 45.0076 86.6825 46.9205V48.4972H68.799V45.0312H81.7536C81.7441 44.0464 81.531 43.1705 81.1143 42.4034C80.6977 41.6269 80.1153 41.0161 79.3672 40.571C78.6286 40.1259 77.7668 39.9034 76.782 39.9034C75.7308 39.9034 74.8075 40.1591 74.0121 40.6705C73.2166 41.1723 72.5964 41.8352 72.1513 42.6591C71.7157 43.4735 71.4931 44.3684 71.4837 45.3438V48.3693C71.4837 49.6383 71.7157 50.7273 72.1797 51.6364C72.6437 52.536 73.2924 53.2273 74.1257 53.7102C74.959 54.1837 75.9344 54.4205 77.0518 54.4205C77.8 54.4205 78.477 54.3163 79.0831 54.108C79.6892 53.8902 80.2147 53.5729 80.6598 53.1562C81.1049 52.7396 81.4411 52.2235 81.6683 51.608L86.4695 52.1477C86.1664 53.4167 85.5888 54.5246 84.7365 55.4716C83.8937 56.4091 82.8142 57.1383 81.4979 57.6591C80.1816 58.1705 78.6759 58.4261 76.9808 58.4261ZM104.151 66.1818C103.45 66.1818 102.801 66.125 102.205 66.0114C101.617 65.9072 101.149 65.7841 100.798 65.642L101.991 61.6364C102.74 61.8542 103.407 61.9583 103.994 61.9489C104.581 61.9394 105.098 61.7547 105.543 61.3949C105.997 61.0445 106.381 60.4574 106.693 59.6335L107.134 58.4545L99.2216 36.1818H104.676L109.705 52.6591H109.932L114.974 36.1818H120.443L111.707 60.642C111.3 61.7973 110.76 62.7869 110.088 63.6108C109.416 64.4441 108.592 65.0786 107.616 65.5142C106.651 65.9593 105.495 66.1818 104.151 66.1818ZM132.776 58.4261C130.646 58.4261 128.799 57.9574 127.237 57.0199C125.674 56.0824 124.462 54.7708 123.6 53.0852C122.748 51.3996 122.322 49.4299 122.322 47.1761C122.322 44.9223 122.748 42.9479 123.6 41.2528C124.462 39.5578 125.674 38.2415 127.237 37.304C128.799 36.3665 130.646 35.8977 132.776 35.8977C134.907 35.8977 136.754 36.3665 138.316 37.304C139.879 38.2415 141.086 39.5578 141.938 41.2528C142.8 42.9479 143.231 44.9223 143.231 47.1761C143.231 49.4299 142.8 51.3996 141.938 53.0852C141.086 54.7708 139.879 56.0824 138.316 57.0199C136.754 57.9574 134.907 58.4261 132.776 58.4261ZM132.805 54.3068C133.96 54.3068 134.926 53.9896 135.702 53.3551C136.479 52.7112 137.057 51.8494 137.435 50.7699C137.824 49.6903 138.018 48.4877 138.018 47.1619C138.018 45.8267 137.824 44.6193 137.435 43.5398C137.057 42.4508 136.479 41.5843 135.702 40.9403C134.926 40.2964 133.96 39.9744 132.805 39.9744C131.621 39.9744 130.636 40.2964 129.85 40.9403C129.074 41.5843 128.491 42.4508 128.103 43.5398C127.724 44.6193 127.535 45.8267 127.535 47.1619C127.535 48.4877 127.724 49.6903 128.103 50.7699C128.491 51.8494 129.074 52.7112 129.85 53.3551C130.636 53.9896 131.621 54.3068 132.805 54.3068ZM161.501 48.8239V36.1818H166.643V58H161.658V54.1222H161.43C160.938 55.3437 160.128 56.3428 159.001 57.1193C157.884 57.8958 156.506 58.2841 154.868 58.2841C153.438 58.2841 152.174 57.9669 151.075 57.3324C149.986 56.6884 149.134 55.7557 148.518 54.5341C147.903 53.303 147.595 51.8163 147.595 50.0739V36.1818H152.737V49.2784C152.737 50.661 153.116 51.7595 153.874 52.5739C154.631 53.3883 155.625 53.7955 156.857 53.7955C157.614 53.7955 158.348 53.6108 159.058 53.2415C159.768 52.8722 160.351 52.3229 160.805 51.5938C161.269 50.8551 161.501 49.9318 161.501 48.8239ZM199.097 41.9489L194.41 42.4602C194.277 41.9867 194.045 41.5417 193.714 41.125C193.392 40.7083 192.956 40.3722 192.407 40.1165C191.858 39.8608 191.185 39.733 190.39 39.733C189.32 39.733 188.42 39.965 187.691 40.429C186.971 40.893 186.616 41.4943 186.626 42.233C186.616 42.8674 186.848 43.3835 187.322 43.7812C187.805 44.179 188.6 44.5057 189.708 44.7614L193.43 45.5568C195.494 46.0019 197.028 46.7074 198.032 47.6733C199.045 48.6392 199.557 49.9034 199.566 51.4659C199.557 52.839 199.154 54.0511 198.359 55.1023C197.573 56.1439 196.479 56.9583 195.077 57.5455C193.676 58.1326 192.066 58.4261 190.248 58.4261C187.577 58.4261 185.428 57.8674 183.799 56.75C182.17 55.6231 181.2 54.0559 180.887 52.0483L185.901 51.5653C186.129 52.5502 186.612 53.2936 187.35 53.7955C188.089 54.2973 189.05 54.5483 190.234 54.5483C191.455 54.5483 192.435 54.2973 193.174 53.7955C193.922 53.2936 194.296 52.6733 194.296 51.9347C194.296 51.3097 194.055 50.7936 193.572 50.3864C193.098 49.9792 192.36 49.6667 191.356 49.4489L187.634 48.6676C185.541 48.232 183.993 47.4981 182.989 46.4659C181.986 45.4242 181.488 44.108 181.498 42.517C181.488 41.1723 181.853 40.0076 182.592 39.0227C183.34 38.0284 184.377 37.2614 185.702 36.7216C187.038 36.1723 188.576 35.8977 190.319 35.8977C192.876 35.8977 194.888 36.4422 196.356 37.5312C197.833 38.6203 198.747 40.0928 199.097 41.9489ZM217.712 48.8239V36.1818H222.854V58H217.869V54.1222H217.641C217.149 55.3437 216.339 56.3428 215.212 57.1193C214.095 57.8958 212.717 58.2841 211.079 58.2841C209.649 58.2841 208.385 57.9669 207.286 57.3324C206.197 56.6884 205.345 55.7557 204.729 54.5341C204.114 53.303 203.806 51.8163 203.806 50.0739V36.1818H208.948V49.2784C208.948 50.661 209.327 51.7595 210.085 52.5739C210.842 53.3883 211.836 53.7955 213.067 53.7955C213.825 53.7955 214.559 53.6108 215.269 53.2415C215.979 52.8722 216.562 52.3229 217.016 51.5938C217.48 50.8551 217.712 49.9318 217.712 48.8239ZM228.142 58V36.1818H233.128V39.8182H233.355C233.753 38.5587 234.435 37.5881 235.401 36.9062C236.376 36.215 237.489 35.8693 238.739 35.8693C239.023 35.8693 239.34 35.8835 239.69 35.9119C240.05 35.9309 240.348 35.964 240.585 36.0114V40.7415C240.367 40.6657 240.022 40.5994 239.548 40.5426C239.084 40.4763 238.634 40.4432 238.199 40.4432C237.261 40.4432 236.419 40.6468 235.67 41.054C234.932 41.4517 234.349 42.0057 233.923 42.7159C233.497 43.4261 233.284 44.2453 233.284 45.1733V58H228.142ZM252.762 58.4261C250.575 58.4261 248.685 57.9716 247.094 57.0625C245.513 56.1439 244.296 54.8466 243.444 53.1705C242.592 51.4848 242.165 49.5009 242.165 47.2188C242.165 44.9744 242.592 43.0047 243.444 41.3097C244.306 39.6051 245.508 38.2794 247.052 37.3324C248.595 36.3759 250.409 35.8977 252.492 35.8977C253.837 35.8977 255.106 36.1155 256.299 36.5511C257.502 36.9773 258.562 37.6402 259.481 38.5398C260.409 39.4394 261.138 40.5852 261.668 41.9773C262.199 43.3598 262.464 45.0076 262.464 46.9205V48.4972H244.58V45.0312H257.535C257.525 44.0464 257.312 43.1705 256.896 42.4034C256.479 41.6269 255.897 41.0161 255.148 40.571C254.41 40.1259 253.548 39.9034 252.563 39.9034C251.512 39.9034 250.589 40.1591 249.793 40.6705C248.998 41.1723 248.378 41.8352 247.933 42.6591C247.497 43.4735 247.274 44.3684 247.265 45.3438V48.3693C247.265 49.6383 247.497 50.7273 247.961 51.6364C248.425 52.536 249.074 53.2273 249.907 53.7102C250.74 54.1837 251.716 54.4205 252.833 54.4205C253.581 54.4205 254.258 54.3163 254.864 54.108C255.47 53.8902 255.996 53.5729 256.441 53.1562C256.886 52.7396 257.222 52.2235 257.45 51.608L262.251 52.1477C261.948 53.4167 261.37 54.5246 260.518 55.4716C259.675 56.4091 258.595 57.1383 257.279 57.6591C255.963 58.1705 254.457 58.4261 252.762 58.4261ZM438.33 97.4489V97.0795C438.34 95.3655 438.501 94.0019 438.813 92.9886C439.135 91.9754 439.59 91.161 440.177 90.5455C440.764 89.9205 441.479 89.3475 442.322 88.8267C442.899 88.4669 443.415 88.0739 443.87 87.6477C444.334 87.2121 444.699 86.7292 444.964 86.1989C445.229 85.6591 445.362 85.0578 445.362 84.3949C445.362 83.6468 445.186 82.9981 444.836 82.4489C444.486 81.8996 444.012 81.4735 443.415 81.1705C442.828 80.8674 442.17 80.7159 441.441 80.7159C440.769 80.7159 440.129 80.8627 439.523 81.1562C438.927 81.4403 438.43 81.8759 438.032 82.4631C437.644 83.0407 437.426 83.7746 437.379 84.6648H432.322C432.369 82.8655 432.805 81.3598 433.629 80.1477C434.462 78.9356 435.56 78.0265 436.924 77.4205C438.297 76.8144 439.812 76.5114 441.469 76.5114C443.278 76.5114 444.869 76.8286 446.242 77.4631C447.625 78.0975 448.7 79.0019 449.467 80.1761C450.243 81.3409 450.631 82.7235 450.631 84.3239C450.631 85.4034 450.456 86.3693 450.106 87.2216C449.765 88.0739 449.277 88.8314 448.643 89.4943C448.008 90.1572 447.255 90.7491 446.384 91.2699C445.617 91.7434 444.987 92.2358 444.495 92.7472C444.012 93.2585 443.652 93.8598 443.415 94.5511C443.188 95.233 443.07 96.0758 443.06 97.0795V97.4489H438.33ZM440.802 106.312C439.95 106.312 439.216 106.009 438.6 105.403C437.985 104.797 437.677 104.059 437.677 103.188C437.677 102.335 437.985 101.606 438.6 101C439.216 100.394 439.95 100.091 440.802 100.091C441.645 100.091 442.374 100.394 442.989 101C443.614 101.606 443.927 102.335 443.927 103.188C443.927 103.765 443.78 104.291 443.487 104.764C443.202 105.238 442.824 105.616 442.35 105.901C441.886 106.175 441.37 106.312 440.802 106.312Z" fill="#FF565D"/>
<path d="M279.932 66.1818C279.231 66.1818 278.582 66.125 277.986 66.0114C277.399 65.9072 276.93 65.7841 276.58 65.642L277.773 61.6364C278.521 61.8542 279.188 61.9583 279.776 61.9489C280.363 61.9394 280.879 61.7547 281.324 61.3949C281.778 61.0445 282.162 60.4574 282.474 59.6335L282.915 58.4545L275.003 36.1818H280.457L285.486 52.6591H285.713L290.756 36.1818H296.224L287.489 60.642C287.081 61.7973 286.542 62.7869 285.869 63.6108C285.197 64.4441 284.373 65.0786 283.398 65.5142C282.432 65.9593 281.277 66.1818 279.932 66.1818ZM308.558 58.4261C306.427 58.4261 304.58 57.9574 303.018 57.0199C301.455 56.0824 300.243 54.7708 299.381 53.0852C298.529 51.3996 298.103 49.4299 298.103 47.1761C298.103 44.9223 298.529 42.9479 299.381 41.2528C300.243 39.5578 301.455 38.2415 303.018 37.304C304.58 36.3665 306.427 35.8977 308.558 35.8977C310.688 35.8977 312.535 36.3665 314.097 37.304C315.66 38.2415 316.867 39.5578 317.719 41.2528C318.581 42.9479 319.012 44.9223 319.012 47.1761C319.012 49.4299 318.581 51.3996 317.719 53.0852C316.867 54.7708 315.66 56.0824 314.097 57.0199C312.535 57.9574 310.688 58.4261 308.558 58.4261ZM308.586 54.3068C309.741 54.3068 310.707 53.9896 311.484 53.3551C312.26 52.7112 312.838 51.8494 313.217 50.7699C313.605 49.6903 313.799 48.4877 313.799 47.1619C313.799 45.8267 313.605 44.6193 313.217 43.5398C312.838 42.4508 312.26 41.5843 311.484 40.9403C310.707 40.2964 309.741 39.9744 308.586 39.9744C307.402 39.9744 306.417 40.2964 305.631 40.9403C304.855 41.5843 304.272 42.4508 303.884 43.5398C303.505 44.6193 303.316 45.8267 303.316 47.1619C303.316 48.4877 303.505 49.6903 303.884 50.7699C304.272 51.8494 304.855 52.7112 305.631 53.3551C306.417 53.9896 307.402 54.3068 308.586 54.3068ZM337.283 48.8239V36.1818H342.425V58H337.439V54.1222H337.212C336.719 55.3437 335.91 56.3428 334.783 57.1193C333.665 57.8958 332.287 58.2841 330.649 58.2841C329.219 58.2841 327.955 57.9669 326.857 57.3324C325.768 56.6884 324.915 55.7557 324.3 54.5341C323.684 53.303 323.376 51.8163 323.376 50.0739V36.1818H328.518V49.2784C328.518 50.661 328.897 51.7595 329.655 52.5739C330.412 53.3883 331.407 53.7955 332.638 53.7955C333.395 53.7955 334.129 53.6108 334.839 53.2415C335.55 52.8722 336.132 52.3229 336.587 51.5938C337.051 50.8551 337.283 49.9318 337.283 48.8239ZM362.137 58L355.972 36.1818H361.214L365.049 51.5227H365.248L369.168 36.1818H374.353L378.273 51.4375H378.487L382.265 36.1818H387.521L381.342 58H375.987L371.896 43.2557H371.597L367.506 58H362.137ZM397.389 58.4403C396.007 58.4403 394.761 58.1941 393.653 57.7017C392.555 57.1998 391.684 56.4612 391.04 55.4858C390.405 54.5104 390.088 53.3078 390.088 51.8778C390.088 50.6468 390.315 49.6288 390.77 48.8239C391.224 48.0189 391.845 47.375 392.631 46.892C393.417 46.4091 394.302 46.0445 395.287 45.7983C396.281 45.5426 397.309 45.358 398.369 45.2443C399.648 45.1117 400.685 44.9934 401.48 44.8892C402.276 44.7756 402.853 44.6051 403.213 44.3778C403.582 44.1411 403.767 43.7765 403.767 43.2841V43.1989C403.767 42.1288 403.45 41.3002 402.815 40.7131C402.181 40.1259 401.267 39.8324 400.074 39.8324C398.814 39.8324 397.815 40.107 397.077 40.6562C396.348 41.2055 395.855 41.8542 395.599 42.6023L390.798 41.9205C391.177 40.5947 391.802 39.4867 392.673 38.5966C393.545 37.697 394.61 37.0246 395.869 36.5795C397.129 36.125 398.521 35.8977 400.045 35.8977C401.097 35.8977 402.143 36.0208 403.185 36.267C404.226 36.5133 405.178 36.9205 406.04 37.4886C406.902 38.0473 407.593 38.8097 408.114 39.7756C408.644 40.7415 408.909 41.9489 408.909 43.3977V58H403.966V55.0028H403.795C403.483 55.6089 403.043 56.1771 402.474 56.7074C401.916 57.2282 401.21 57.6496 400.358 57.9716C399.515 58.2841 398.526 58.4403 397.389 58.4403ZM398.724 54.6619C399.757 54.6619 400.652 54.4583 401.409 54.0511C402.167 53.6345 402.749 53.0852 403.156 52.4034C403.573 51.7216 403.781 50.9782 403.781 50.1733V47.6023C403.62 47.7348 403.346 47.858 402.957 47.9716C402.579 48.0852 402.152 48.1847 401.679 48.2699C401.205 48.3551 400.737 48.4309 400.273 48.4972C399.809 48.5634 399.406 48.6203 399.065 48.6676C398.298 48.7718 397.612 48.9422 397.006 49.179C396.4 49.4157 395.921 49.7472 395.571 50.1733C395.221 50.59 395.045 51.1297 395.045 51.7926C395.045 52.7396 395.391 53.4545 396.082 53.9375C396.774 54.4205 397.654 54.6619 398.724 54.6619ZM419.222 45.2159V58H414.08V36.1818H418.994V39.8892H419.25C419.752 38.6676 420.552 37.697 421.651 36.9773C422.759 36.2576 424.127 35.8977 425.756 35.8977C427.261 35.8977 428.573 36.2197 429.69 36.8636C430.817 37.5076 431.688 38.4403 432.304 39.6619C432.929 40.8835 433.237 42.3655 433.227 44.108V58H428.085V44.9034C428.085 43.4451 427.706 42.304 426.949 41.4801C426.201 40.6562 425.164 40.2443 423.838 40.2443C422.938 40.2443 422.138 40.4432 421.438 40.8409C420.746 41.2292 420.202 41.7926 419.804 42.5312C419.416 43.2699 419.222 44.1648 419.222 45.2159ZM449.349 36.1818V40.1591H436.807V36.1818H449.349ZM439.903 30.9545H445.045V51.4375C445.045 52.1288 445.15 52.6591 445.358 53.0284C445.576 53.3883 445.86 53.6345 446.21 53.767C446.561 53.8996 446.949 53.9659 447.375 53.9659C447.697 53.9659 447.991 53.9422 448.256 53.8949C448.53 53.8475 448.739 53.8049 448.881 53.767L449.747 57.7869C449.473 57.8816 449.08 57.9858 448.568 58.0994C448.066 58.2131 447.451 58.2794 446.722 58.2983C445.434 58.3362 444.274 58.142 443.241 57.7159C442.209 57.2803 441.39 56.608 440.784 55.6989C440.188 54.7898 439.894 53.6534 439.903 52.2898V30.9545ZM474.467 36.1818V40.1591H461.924V36.1818H474.467ZM465.021 30.9545H470.163V51.4375C470.163 52.1288 470.267 52.6591 470.475 53.0284C470.693 53.3883 470.977 53.6345 471.327 53.767C471.678 53.8996 472.066 53.9659 472.492 53.9659C472.814 53.9659 473.108 53.9422 473.373 53.8949C473.647 53.8475 473.856 53.8049 473.998 53.767L474.864 57.7869C474.59 57.8816 474.197 57.9858 473.685 58.0994C473.183 58.2131 472.568 58.2794 471.839 58.2983C470.551 58.3362 469.391 58.142 468.359 57.7159C467.326 57.2803 466.507 56.608 465.901 55.6989C465.305 54.7898 465.011 53.6534 465.021 52.2898V30.9545ZM488.05 58.4261C485.919 58.4261 484.072 57.9574 482.51 57.0199C480.947 56.0824 479.735 54.7708 478.874 53.0852C478.021 51.3996 477.595 49.4299 477.595 47.1761C477.595 44.9223 478.021 42.9479 478.874 41.2528C479.735 39.5578 480.947 38.2415 482.51 37.304C484.072 36.3665 485.919 35.8977 488.05 35.8977C490.18 35.8977 492.027 36.3665 493.589 37.304C495.152 38.2415 496.359 39.5578 497.212 41.2528C498.073 42.9479 498.504 44.9223 498.504 47.1761C498.504 49.4299 498.073 51.3996 497.212 53.0852C496.359 54.7708 495.152 56.0824 493.589 57.0199C492.027 57.9574 490.18 58.4261 488.05 58.4261ZM488.078 54.3068C489.233 54.3068 490.199 53.9896 490.976 53.3551C491.752 52.7112 492.33 51.8494 492.709 50.7699C493.097 49.6903 493.291 48.4877 493.291 47.1619C493.291 45.8267 493.097 44.6193 492.709 43.5398C492.33 42.4508 491.752 41.5843 490.976 40.9403C490.199 40.2964 489.233 39.9744 488.078 39.9744C486.894 39.9744 485.91 40.2964 485.124 40.9403C484.347 41.5843 483.765 42.4508 483.376 43.5398C482.998 44.6193 482.808 45.8267 482.808 47.1619C482.808 48.4877 482.998 49.6903 483.376 50.7699C483.765 51.8494 484.347 52.7112 485.124 53.3551C485.91 53.9896 486.894 54.3068 488.078 54.3068ZM90.5994 84.1818L82.8295 106H77.1477L69.3778 84.1818H74.8608L79.875 100.389H80.1023L85.1307 84.1818H90.5994ZM94.1577 106V84.1818H99.2997V106H94.1577ZM96.7429 81.0852C95.9285 81.0852 95.2277 80.8153 94.6406 80.2756C94.0535 79.7263 93.7599 79.0682 93.7599 78.3011C93.7599 77.5246 94.0535 76.8665 94.6406 76.3267C95.2277 75.7775 95.9285 75.5028 96.7429 75.5028C97.5668 75.5028 98.2675 75.7775 98.8452 76.3267C99.4323 76.8665 99.7259 77.5246 99.7259 78.3011C99.7259 79.0682 99.4323 79.7263 98.8452 80.2756C98.2675 80.8153 97.5668 81.0852 96.7429 81.0852ZM121.832 89.9489L117.144 90.4602C117.012 89.9867 116.78 89.5417 116.448 89.125C116.126 88.7083 115.691 88.3722 115.141 88.1165C114.592 87.8608 113.92 87.733 113.124 87.733C112.054 87.733 111.155 87.965 110.425 88.429C109.706 88.893 109.351 89.4943 109.36 90.233C109.351 90.8674 109.583 91.3835 110.056 91.7812C110.539 92.179 111.335 92.5057 112.442 92.7614L116.164 93.5568C118.228 94.0019 119.763 94.7074 120.766 95.6733C121.78 96.6392 122.291 97.9034 122.3 99.4659C122.291 100.839 121.888 102.051 121.093 103.102C120.307 104.144 119.213 104.958 117.812 105.545C116.41 106.133 114.8 106.426 112.982 106.426C110.312 106.426 108.162 105.867 106.533 104.75C104.905 103.623 103.934 102.056 103.621 100.048L108.636 99.5653C108.863 100.55 109.346 101.294 110.085 101.795C110.823 102.297 111.784 102.548 112.968 102.548C114.19 102.548 115.17 102.297 115.908 101.795C116.656 101.294 117.031 100.673 117.031 99.9347C117.031 99.3097 116.789 98.7936 116.306 98.3864C115.833 97.9792 115.094 97.6667 114.09 97.4489L110.369 96.6676C108.276 96.232 106.728 95.4981 105.724 94.4659C104.72 93.4242 104.223 92.108 104.232 90.517C104.223 89.1723 104.587 88.0076 105.326 87.0227C106.074 86.0284 107.111 85.2614 108.437 84.7216C109.772 84.1723 111.311 83.8977 113.053 83.8977C115.61 83.8977 117.622 84.4422 119.09 85.5312C120.567 86.6203 121.481 88.0928 121.832 89.9489ZM126.54 106V84.1818H131.683V106H126.54ZM129.126 81.0852C128.311 81.0852 127.611 80.8153 127.023 80.2756C126.436 79.7263 126.143 79.0682 126.143 78.3011C126.143 77.5246 126.436 76.8665 127.023 76.3267C127.611 75.7775 128.311 75.5028 129.126 75.5028C129.95 75.5028 130.65 75.7775 131.228 76.3267C131.815 76.8665 132.109 77.5246 132.109 78.3011C132.109 79.0682 131.815 79.7263 131.228 80.2756C130.65 80.8153 129.95 81.0852 129.126 81.0852ZM147.865 84.1818V88.1591H135.322V84.1818H147.865ZM138.419 78.9545H143.561V99.4375C143.561 100.129 143.665 100.659 143.874 101.028C144.091 101.388 144.375 101.634 144.726 101.767C145.076 101.9 145.464 101.966 145.891 101.966C146.213 101.966 146.506 101.942 146.771 101.895C147.046 101.848 147.254 101.805 147.396 101.767L148.263 105.787C147.988 105.882 147.595 105.986 147.084 106.099C146.582 106.213 145.966 106.279 145.237 106.298C143.949 106.336 142.789 106.142 141.757 105.716C140.725 105.28 139.906 104.608 139.3 103.699C138.703 102.79 138.41 101.653 138.419 100.29V78.9545ZM172.982 84.1818V88.1591H160.44V84.1818H172.982ZM163.536 78.9545H168.678V99.4375C168.678 100.129 168.782 100.659 168.991 101.028C169.209 101.388 169.493 101.634 169.843 101.767C170.193 101.9 170.582 101.966 171.008 101.966C171.33 101.966 171.623 101.942 171.888 101.895C172.163 101.848 172.371 101.805 172.513 101.767L173.38 105.787C173.105 105.882 172.712 105.986 172.201 106.099C171.699 106.213 171.084 106.279 170.354 106.298C169.067 106.336 167.906 106.142 166.874 105.716C165.842 105.28 165.023 104.608 164.417 103.699C163.82 102.79 163.527 101.653 163.536 100.29V78.9545ZM182.893 93.2159V106H177.751V76.9091H182.78V87.8892H183.036C183.547 86.6581 184.338 85.6875 185.408 84.9773C186.487 84.2576 187.86 83.8977 189.527 83.8977C191.042 83.8977 192.363 84.215 193.49 84.8494C194.617 85.4839 195.488 86.4119 196.104 87.6335C196.729 88.8551 197.041 90.3466 197.041 92.108V106H191.899V92.9034C191.899 91.4356 191.52 90.2945 190.763 89.4801C190.015 88.6562 188.964 88.2443 187.609 88.2443C186.7 88.2443 185.886 88.4432 185.166 88.8409C184.456 89.2292 183.897 89.7926 183.49 90.5312C183.092 91.2699 182.893 92.1648 182.893 93.2159ZM211.942 106.426C209.754 106.426 207.865 105.972 206.274 105.062C204.693 104.144 203.476 102.847 202.624 101.17C201.771 99.4848 201.345 97.5009 201.345 95.2188C201.345 92.9744 201.771 91.0047 202.624 89.3097C203.485 87.6051 204.688 86.2794 206.232 85.3324C207.775 84.3759 209.589 83.8977 211.672 83.8977C213.017 83.8977 214.286 84.1155 215.479 84.5511C216.681 84.9773 217.742 85.6402 218.661 86.5398C219.589 87.4394 220.318 88.5852 220.848 89.9773C221.378 91.3598 221.643 93.0076 221.643 94.9205V96.4972H203.76V93.0312H216.714C216.705 92.0464 216.492 91.1705 216.075 90.4034C215.659 89.6269 215.076 89.0161 214.328 88.571C213.589 88.1259 212.728 87.9034 211.743 87.9034C210.692 87.9034 209.768 88.1591 208.973 88.6705C208.178 89.1723 207.557 89.8352 207.112 90.6591C206.677 91.4735 206.454 92.3684 206.445 93.3438V96.3693C206.445 97.6383 206.677 98.7273 207.141 99.6364C207.605 100.536 208.253 101.227 209.087 101.71C209.92 102.184 210.895 102.42 212.013 102.42C212.761 102.42 213.438 102.316 214.044 102.108C214.65 101.89 215.176 101.573 215.621 101.156C216.066 100.74 216.402 100.223 216.629 99.608L221.43 100.148C221.127 101.417 220.55 102.525 219.697 103.472C218.855 104.409 217.775 105.138 216.459 105.659C215.143 106.17 213.637 106.426 211.942 106.426ZM253.16 89.9489L248.472 90.4602C248.34 89.9867 248.108 89.5417 247.776 89.125C247.454 88.7083 247.019 88.3722 246.469 88.1165C245.92 87.8608 245.248 87.733 244.452 87.733C243.382 87.733 242.483 87.965 241.754 88.429C241.034 88.893 240.679 89.4943 240.688 90.233C240.679 90.8674 240.911 91.3835 241.384 91.7812C241.867 92.179 242.663 92.5057 243.771 92.7614L247.492 93.5568C249.557 94.0019 251.091 94.7074 252.094 95.6733C253.108 96.6392 253.619 97.9034 253.629 99.4659C253.619 100.839 253.217 102.051 252.421 103.102C251.635 104.144 250.541 104.958 249.14 105.545C247.738 106.133 246.129 106.426 244.31 106.426C241.64 106.426 239.49 105.867 237.862 104.75C236.233 103.623 235.262 102.056 234.95 100.048L239.964 99.5653C240.191 100.55 240.674 101.294 241.413 101.795C242.151 102.297 243.112 102.548 244.296 102.548C245.518 102.548 246.498 102.297 247.237 101.795C247.985 101.294 248.359 100.673 248.359 99.9347C248.359 99.3097 248.117 98.7936 247.634 98.3864C247.161 97.9792 246.422 97.6667 245.418 97.4489L241.697 96.6676C239.604 96.232 238.056 95.4981 237.052 94.4659C236.048 93.4242 235.551 92.108 235.56 90.517C235.551 89.1723 235.915 88.0076 236.654 87.0227C237.402 86.0284 238.439 85.2614 239.765 84.7216C241.1 84.1723 242.639 83.8977 244.381 83.8977C246.938 83.8977 248.951 84.4422 250.418 85.5312C251.896 86.6203 252.809 88.0928 253.16 89.9489ZM257.869 106V84.1818H263.011V106H257.869ZM260.454 81.0852C259.639 81.0852 258.939 80.8153 258.352 80.2756C257.764 79.7263 257.471 79.0682 257.471 78.3011C257.471 77.5246 257.764 76.8665 258.352 76.3267C258.939 75.7775 259.639 75.5028 260.454 75.5028C261.278 75.5028 261.978 75.7775 262.556 76.3267C263.143 76.8665 263.437 77.5246 263.437 78.3011C263.437 79.0682 263.143 79.7263 262.556 80.2756C261.978 80.8153 261.278 81.0852 260.454 81.0852ZM279.193 84.1818V88.1591H266.651V84.1818H279.193ZM269.747 78.9545H274.889V99.4375C274.889 100.129 274.993 100.659 275.202 101.028C275.42 101.388 275.704 101.634 276.054 101.767C276.404 101.9 276.793 101.966 277.219 101.966C277.541 101.966 277.834 101.942 278.099 101.895C278.374 101.848 278.582 101.805 278.724 101.767L279.591 105.787C279.316 105.882 278.923 105.986 278.412 106.099C277.91 106.213 277.295 106.279 276.565 106.298C275.277 106.336 274.117 106.142 273.085 105.716C272.053 105.28 271.234 104.608 270.628 103.699C270.031 102.79 269.738 101.653 269.747 100.29V78.9545ZM292.918 106.426C290.731 106.426 288.842 105.972 287.251 105.062C285.669 104.144 284.452 102.847 283.6 101.17C282.748 99.4848 282.322 97.5009 282.322 95.2188C282.322 92.9744 282.748 91.0047 283.6 89.3097C284.462 87.6051 285.665 86.2794 287.208 85.3324C288.752 84.3759 290.565 83.8977 292.648 83.8977C293.993 83.8977 295.262 84.1155 296.455 84.5511C297.658 84.9773 298.719 85.6402 299.637 86.5398C300.565 87.4394 301.294 88.5852 301.825 89.9773C302.355 91.3598 302.62 93.0076 302.62 94.9205V96.4972H284.737V93.0312H297.691C297.682 92.0464 297.469 91.1705 297.052 90.4034C296.635 89.6269 296.053 89.0161 295.305 88.571C294.566 88.1259 293.704 87.9034 292.719 87.9034C291.668 87.9034 290.745 88.1591 289.95 88.6705C289.154 89.1723 288.534 89.8352 288.089 90.6591C287.653 91.4735 287.431 92.3684 287.421 93.3438V96.3693C287.421 97.6383 287.653 98.7273 288.117 99.6364C288.581 100.536 289.23 101.227 290.063 101.71C290.897 102.184 291.872 102.42 292.989 102.42C293.737 102.42 294.415 102.316 295.021 102.108C295.627 101.89 296.152 101.573 296.597 101.156C297.042 100.74 297.379 100.223 297.606 99.608L302.407 100.148C302.104 101.417 301.526 102.525 300.674 103.472C299.831 104.409 298.752 105.138 297.435 105.659C296.119 106.17 294.613 106.426 292.918 106.426ZM317.119 106V76.9091H322.261V87.7898H322.474C322.74 87.2595 323.114 86.696 323.597 86.0994C324.08 85.4934 324.733 84.9773 325.557 84.5511C326.381 84.1155 327.432 83.8977 328.71 83.8977C330.396 83.8977 331.916 84.3286 333.27 85.1903C334.634 86.0426 335.713 87.3068 336.509 88.983C337.313 90.6496 337.716 92.6951 337.716 95.1193C337.716 97.5152 337.323 99.5511 336.537 101.227C335.751 102.903 334.681 104.182 333.327 105.062C331.973 105.943 330.438 106.384 328.724 106.384C327.474 106.384 326.438 106.175 325.614 105.759C324.79 105.342 324.127 104.84 323.625 104.253C323.133 103.656 322.749 103.093 322.474 102.562H322.176V106H317.119ZM322.162 95.0909C322.162 96.5019 322.361 97.7377 322.759 98.7983C323.166 99.8589 323.748 100.687 324.506 101.284C325.273 101.871 326.201 102.165 327.29 102.165C328.426 102.165 329.378 101.862 330.145 101.256C330.912 100.64 331.49 99.8021 331.878 98.7415C332.276 97.6714 332.474 96.4545 332.474 95.0909C332.474 93.7367 332.28 92.5341 331.892 91.483C331.504 90.4318 330.926 89.608 330.159 89.0114C329.392 88.4148 328.436 88.1165 327.29 88.1165C326.191 88.1165 325.259 88.4053 324.491 88.983C323.724 89.5606 323.142 90.3703 322.744 91.4119C322.356 92.4536 322.162 93.6799 322.162 95.0909ZM351.746 106.426C349.559 106.426 347.67 105.972 346.079 105.062C344.497 104.144 343.281 102.847 342.428 101.17C341.576 99.4848 341.15 97.5009 341.15 95.2188C341.15 92.9744 341.576 91.0047 342.428 89.3097C343.29 87.6051 344.493 86.2794 346.036 85.3324C347.58 84.3759 349.393 83.8977 351.477 83.8977C352.821 83.8977 354.09 84.1155 355.283 84.5511C356.486 84.9773 357.547 85.6402 358.465 86.5398C359.393 87.4394 360.122 88.5852 360.653 89.9773C361.183 91.3598 361.448 93.0076 361.448 94.9205V96.4972H343.565V93.0312H356.519C356.51 92.0464 356.297 91.1705 355.88 90.4034C355.463 89.6269 354.881 89.0161 354.133 88.571C353.394 88.1259 352.532 87.9034 351.548 87.9034C350.496 87.9034 349.573 88.1591 348.778 88.6705C347.982 89.1723 347.362 89.8352 346.917 90.6591C346.481 91.4735 346.259 92.3684 346.249 93.3438V96.3693C346.249 97.6383 346.481 98.7273 346.945 99.6364C347.409 100.536 348.058 101.227 348.891 101.71C349.725 102.184 350.7 102.42 351.817 102.42C352.566 102.42 353.243 102.316 353.849 102.108C354.455 101.89 354.98 101.573 355.425 101.156C355.871 100.74 356.207 100.223 356.434 99.608L361.235 100.148C360.932 101.417 360.354 102.525 359.502 103.472C358.659 104.409 357.58 105.138 356.263 105.659C354.947 106.17 353.442 106.426 351.746 106.426ZM370.94 76.9091V106H365.798V76.9091H370.94ZM385.745 106.426C383.614 106.426 381.768 105.957 380.205 105.02C378.643 104.082 377.431 102.771 376.569 101.085C375.717 99.3996 375.29 97.4299 375.29 95.1761C375.29 92.9223 375.717 90.9479 376.569 89.2528C377.431 87.5578 378.643 86.2415 380.205 85.304C381.768 84.3665 383.614 83.8977 385.745 83.8977C387.876 83.8977 389.722 84.3665 391.285 85.304C392.847 86.2415 394.055 87.5578 394.907 89.2528C395.769 90.9479 396.2 92.9223 396.2 95.1761C396.2 97.4299 395.769 99.3996 394.907 101.085C394.055 102.771 392.847 104.082 391.285 105.02C389.722 105.957 387.876 106.426 385.745 106.426ZM385.773 102.307C386.929 102.307 387.895 101.99 388.671 101.355C389.448 100.711 390.025 99.8494 390.404 98.7699C390.792 97.6903 390.987 96.4877 390.987 95.1619C390.987 93.8267 390.792 92.6193 390.404 91.5398C390.025 90.4508 389.448 89.5843 388.671 88.9403C387.895 88.2964 386.929 87.9744 385.773 87.9744C384.59 87.9744 383.605 88.2964 382.819 88.9403C382.042 89.5843 381.46 90.4508 381.072 91.5398C380.693 92.6193 380.504 93.8267 380.504 95.1619C380.504 96.4877 380.693 97.6903 381.072 98.7699C381.46 99.8494 382.042 100.711 382.819 101.355C383.605 101.99 384.59 102.307 385.773 102.307ZM404.442 106L398.277 84.1818H403.518L407.354 99.5227H407.553L411.473 84.1818H416.658L420.578 99.4375H420.791L424.57 84.1818H429.825L423.646 106H418.291L414.2 91.2557H413.902L409.811 106H404.442Z" fill="black"/>
<rect x="46.5" y="148.5" width="429" height="53" rx="8.5" stroke="#FF565D" stroke-width="3"/>
<path d="M120.794 187.621V160.55H128.496V163.512H124.501V184.67H128.496V187.621H120.794ZM143.307 169.18C143.208 168.249 142.789 167.525 142.05 167.006C141.318 166.488 140.367 166.229 139.195 166.229C138.371 166.229 137.664 166.353 137.075 166.602C136.485 166.85 136.034 167.187 135.722 167.614C135.409 168.04 135.25 168.526 135.242 169.073C135.242 169.528 135.345 169.922 135.551 170.256C135.764 170.589 136.052 170.874 136.414 171.108C136.777 171.335 137.178 171.527 137.618 171.683C138.059 171.839 138.502 171.971 138.95 172.077L140.995 172.589C141.819 172.781 142.611 173.04 143.371 173.366C144.138 173.693 144.823 174.105 145.427 174.602C146.038 175.099 146.521 175.7 146.876 176.403C147.231 177.106 147.409 177.93 147.409 178.874C147.409 180.153 147.082 181.278 146.429 182.251C145.775 183.217 144.831 183.974 143.595 184.521C142.366 185.06 140.878 185.33 139.131 185.33C137.434 185.33 135.96 185.067 134.71 184.542C133.467 184.016 132.494 183.249 131.791 182.241C131.095 181.232 130.718 180.004 130.661 178.555H134.55C134.607 179.315 134.841 179.947 135.253 180.451C135.665 180.955 136.201 181.332 136.862 181.58C137.529 181.829 138.275 181.953 139.099 181.953C139.958 181.953 140.711 181.825 141.358 181.57C142.011 181.307 142.522 180.945 142.892 180.483C143.261 180.014 143.449 179.467 143.456 178.842C143.449 178.274 143.282 177.805 142.956 177.436C142.629 177.06 142.171 176.747 141.581 176.499C140.999 176.243 140.317 176.016 139.536 175.817L137.054 175.178C135.257 174.716 133.836 174.016 132.792 173.079C131.755 172.134 131.237 170.881 131.237 169.318C131.237 168.033 131.585 166.907 132.281 165.941C132.984 164.975 133.939 164.226 135.147 163.693C136.354 163.153 137.721 162.884 139.248 162.884C140.796 162.884 142.153 163.153 143.318 163.693C144.49 164.226 145.409 164.968 146.077 165.92C146.745 166.864 147.089 167.951 147.11 169.18H143.307ZM157.9 185.32C156.302 185.32 154.917 184.968 153.745 184.265C152.573 183.562 151.664 182.578 151.017 181.314C150.378 180.05 150.059 178.572 150.059 176.882C150.059 175.192 150.378 173.711 151.017 172.44C151.664 171.168 152.573 170.181 153.745 169.478C154.917 168.775 156.302 168.423 157.9 168.423C159.498 168.423 160.883 168.775 162.054 169.478C163.226 170.181 164.132 171.168 164.771 172.44C165.417 173.711 165.741 175.192 165.741 176.882C165.741 178.572 165.417 180.05 164.771 181.314C164.132 182.578 163.226 183.562 162.054 184.265C160.883 184.968 159.498 185.32 157.9 185.32ZM157.921 182.23C158.787 182.23 159.512 181.992 160.094 181.516C160.677 181.033 161.11 180.387 161.394 179.577C161.685 178.768 161.831 177.866 161.831 176.871C161.831 175.87 161.685 174.964 161.394 174.155C161.11 173.338 160.677 172.688 160.094 172.205C159.512 171.722 158.787 171.481 157.921 171.481C157.033 171.481 156.294 171.722 155.705 172.205C155.123 172.688 154.686 173.338 154.395 174.155C154.111 174.964 153.968 175.87 153.968 176.871C153.968 177.866 154.111 178.768 154.395 179.577C154.686 180.387 155.123 181.033 155.705 181.516C156.294 181.992 157.033 182.23 157.921 182.23ZM176.152 185.32C174.518 185.32 173.115 184.961 171.943 184.244C170.779 183.526 169.88 182.536 169.248 181.271C168.623 180 168.311 178.537 168.311 176.882C168.311 175.22 168.63 173.754 169.269 172.482C169.909 171.204 170.811 170.21 171.975 169.499C173.147 168.782 174.532 168.423 176.13 168.423C177.458 168.423 178.634 168.668 179.657 169.158C180.686 169.641 181.507 170.327 182.117 171.214C182.728 172.095 183.076 173.125 183.161 174.304H179.475C179.326 173.516 178.971 172.859 178.41 172.333C177.856 171.8 177.114 171.534 176.184 171.534C175.395 171.534 174.703 171.747 174.106 172.173C173.509 172.592 173.044 173.196 172.71 173.984C172.384 174.773 172.22 175.717 172.22 176.818C172.22 177.933 172.384 178.892 172.71 179.695C173.037 180.49 173.495 181.104 174.085 181.538C174.681 181.964 175.381 182.177 176.184 182.177C176.752 182.177 177.259 182.07 177.707 181.857C178.161 181.637 178.541 181.321 178.847 180.909C179.152 180.497 179.362 179.996 179.475 179.407H183.161C183.069 180.565 182.728 181.591 182.139 182.486C181.549 183.374 180.747 184.07 179.731 184.574C178.715 185.071 177.522 185.32 176.152 185.32ZM186.328 185V168.636H190.185V185H186.328ZM188.267 166.314C187.656 166.314 187.131 166.112 186.69 165.707C186.25 165.295 186.03 164.801 186.03 164.226C186.03 163.643 186.25 163.15 186.69 162.745C187.131 162.333 187.656 162.127 188.267 162.127C188.885 162.127 189.411 162.333 189.844 162.745C190.284 163.15 190.504 163.643 190.504 164.226C190.504 164.801 190.284 165.295 189.844 165.707C189.411 166.112 188.885 166.314 188.267 166.314ZM198.859 185.33C197.822 185.33 196.888 185.146 196.057 184.776C195.234 184.4 194.58 183.846 194.097 183.114C193.621 182.383 193.383 181.481 193.383 180.408C193.383 179.485 193.554 178.722 193.895 178.118C194.236 177.514 194.701 177.031 195.29 176.669C195.88 176.307 196.544 176.033 197.283 175.849C198.028 175.657 198.799 175.518 199.594 175.433C200.553 175.334 201.331 175.245 201.927 175.167C202.524 175.082 202.957 174.954 203.227 174.783C203.504 174.606 203.643 174.332 203.643 173.963V173.899C203.643 173.097 203.405 172.475 202.929 172.035C202.453 171.594 201.768 171.374 200.873 171.374C199.928 171.374 199.179 171.58 198.625 171.992C198.078 172.404 197.709 172.891 197.517 173.452L193.916 172.94C194.2 171.946 194.669 171.115 195.322 170.447C195.976 169.773 196.775 169.268 197.719 168.935C198.664 168.594 199.708 168.423 200.851 168.423C201.64 168.423 202.425 168.516 203.206 168.7C203.987 168.885 204.701 169.19 205.347 169.616C205.994 170.036 206.512 170.607 206.903 171.332C207.3 172.056 207.499 172.962 207.499 174.048V185H203.792V182.752H203.664C203.43 183.207 203.099 183.633 202.673 184.031C202.254 184.421 201.725 184.737 201.086 184.979C200.454 185.213 199.712 185.33 198.859 185.33ZM199.861 182.496C200.635 182.496 201.306 182.344 201.874 182.038C202.442 181.726 202.879 181.314 203.185 180.803C203.497 180.291 203.653 179.734 203.653 179.13V177.202C203.533 177.301 203.327 177.393 203.035 177.479C202.751 177.564 202.432 177.638 202.077 177.702C201.722 177.766 201.37 177.823 201.022 177.873C200.674 177.923 200.372 177.965 200.116 178.001C199.541 178.079 199.026 178.207 198.572 178.384C198.117 178.562 197.758 178.81 197.496 179.13C197.233 179.442 197.101 179.847 197.101 180.344C197.101 181.055 197.361 181.591 197.879 181.953C198.398 182.315 199.058 182.496 199.861 182.496ZM215.234 163.182V185H211.377V163.182H215.234ZM230.497 163.182V185H226.641V163.182H230.497ZM234.463 185V168.636H238.32V185H234.463ZM236.402 166.314C235.791 166.314 235.266 166.112 234.825 165.707C234.385 165.295 234.165 164.801 234.165 164.226C234.165 163.643 234.385 163.15 234.825 162.745C235.266 162.333 235.791 162.127 236.402 162.127C237.02 162.127 237.545 162.333 237.979 162.745C238.419 163.15 238.639 163.643 238.639 164.226C238.639 164.801 238.419 165.295 237.979 165.707C237.545 166.112 237.02 166.314 236.402 166.314ZM246.142 175.412V185H242.285V168.636H245.971V171.417H246.163C246.54 170.501 247.14 169.773 247.964 169.233C248.794 168.693 249.821 168.423 251.042 168.423C252.172 168.423 253.155 168.665 253.993 169.148C254.839 169.631 255.492 170.33 255.954 171.246C256.422 172.163 256.653 173.274 256.646 174.581V185H252.79V175.178C252.79 174.084 252.505 173.228 251.937 172.61C251.376 171.992 250.598 171.683 249.604 171.683C248.929 171.683 248.329 171.832 247.804 172.131C247.285 172.422 246.877 172.844 246.579 173.398C246.287 173.952 246.142 174.624 246.142 175.412ZM264.082 179.865L264.071 175.21H264.689L270.57 168.636H275.076L267.843 176.69H267.044L264.082 179.865ZM260.566 185V163.182H264.423V185H260.566ZM270.836 185L265.51 177.553L268.109 174.837L275.449 185H270.836ZM295.518 178.118V168.636H299.374V185H295.635V182.092H295.464C295.095 183.008 294.488 183.757 293.643 184.339C292.805 184.922 291.771 185.213 290.543 185.213C289.47 185.213 288.522 184.975 287.698 184.499C286.881 184.016 286.242 183.317 285.78 182.401C285.319 181.477 285.088 180.362 285.088 179.055V168.636H288.945V178.459C288.945 179.496 289.229 180.32 289.797 180.93C290.365 181.541 291.111 181.847 292.034 181.847C292.602 181.847 293.153 181.708 293.685 181.431C294.218 181.154 294.655 180.742 294.996 180.195C295.344 179.641 295.518 178.949 295.518 178.118ZM303.34 185V168.636H307.079V171.364H307.25C307.548 170.419 308.059 169.691 308.784 169.18C309.515 168.661 310.35 168.402 311.287 168.402C311.5 168.402 311.738 168.413 312.001 168.434C312.271 168.448 312.495 168.473 312.672 168.509V172.056C312.509 171.999 312.25 171.95 311.895 171.907C311.547 171.857 311.209 171.832 310.883 171.832C310.179 171.832 309.547 171.985 308.986 172.29C308.432 172.589 307.995 173.004 307.676 173.537C307.356 174.07 307.196 174.684 307.196 175.38V185H303.34ZM319.091 163.182V185H315.234V163.182H319.091ZM334.355 175.412V185H330.498V163.182H334.269V171.417H334.461C334.845 170.494 335.438 169.766 336.24 169.233C337.05 168.693 338.08 168.423 339.33 168.423C340.466 168.423 341.457 168.661 342.302 169.137C343.147 169.613 343.801 170.309 344.262 171.225C344.731 172.141 344.965 173.26 344.965 174.581V185H341.109V175.178C341.109 174.077 340.825 173.221 340.257 172.61C339.696 171.992 338.907 171.683 337.892 171.683C337.21 171.683 336.599 171.832 336.059 172.131C335.527 172.422 335.108 172.844 334.802 173.398C334.504 173.952 334.355 174.624 334.355 175.412ZM356.141 185.32C354.5 185.32 353.083 184.979 351.89 184.297C350.704 183.608 349.791 182.635 349.152 181.378C348.513 180.114 348.193 178.626 348.193 176.914C348.193 175.231 348.513 173.754 349.152 172.482C349.799 171.204 350.701 170.21 351.858 169.499C353.016 168.782 354.376 168.423 355.938 168.423C356.947 168.423 357.899 168.587 358.794 168.913C359.696 169.233 360.491 169.73 361.18 170.405C361.876 171.08 362.423 171.939 362.821 172.983C363.218 174.02 363.417 175.256 363.417 176.69V177.873H350.005V175.273H359.72C359.713 174.535 359.554 173.878 359.241 173.303C358.929 172.72 358.492 172.262 357.931 171.928C357.377 171.594 356.73 171.428 355.992 171.428C355.203 171.428 354.511 171.619 353.914 172.003C353.318 172.379 352.853 172.876 352.519 173.494C352.192 174.105 352.025 174.776 352.018 175.508V177.777C352.018 178.729 352.192 179.545 352.54 180.227C352.888 180.902 353.375 181.42 354 181.783C354.625 182.138 355.356 182.315 356.194 182.315C356.755 182.315 357.263 182.237 357.718 182.081C358.172 181.918 358.566 181.68 358.9 181.367C359.234 181.055 359.486 180.668 359.657 180.206L363.257 180.611C363.03 181.562 362.597 182.393 361.958 183.104C361.326 183.807 360.516 184.354 359.529 184.744C358.541 185.128 357.412 185.32 356.141 185.32ZM366.68 185V168.636H370.419V171.364H370.59C370.888 170.419 371.399 169.691 372.124 169.18C372.855 168.661 373.69 168.402 374.627 168.402C374.84 168.402 375.078 168.413 375.341 168.434C375.611 168.448 375.835 168.473 376.012 168.509V172.056C375.849 171.999 375.59 171.95 375.234 171.907C374.886 171.857 374.549 171.832 374.222 171.832C373.519 171.832 372.887 171.985 372.326 172.29C371.772 172.589 371.335 173.004 371.016 173.537C370.696 174.07 370.536 174.684 370.536 175.38V185H366.68ZM385.145 185.32C383.504 185.32 382.087 184.979 380.894 184.297C379.708 183.608 378.795 182.635 378.156 181.378C377.517 180.114 377.197 178.626 377.197 176.914C377.197 175.231 377.517 173.754 378.156 172.482C378.802 171.204 379.704 170.21 380.862 169.499C382.02 168.782 383.38 168.423 384.942 168.423C385.951 168.423 386.903 168.587 387.797 168.913C388.699 169.233 389.495 169.73 390.184 170.405C390.88 171.08 391.427 171.939 391.824 172.983C392.222 174.02 392.421 175.256 392.421 176.69V177.873H379.008V175.273H388.724C388.717 174.535 388.557 173.878 388.245 173.303C387.932 172.72 387.496 172.262 386.935 171.928C386.381 171.594 385.734 171.428 384.996 171.428C384.207 171.428 383.515 171.619 382.918 172.003C382.322 172.379 381.856 172.876 381.523 173.494C381.196 174.105 381.029 174.776 381.022 175.508V177.777C381.022 178.729 381.196 179.545 381.544 180.227C381.892 180.902 382.378 181.42 383.003 181.783C383.628 182.138 384.36 182.315 385.198 182.315C385.759 182.315 386.267 182.237 386.722 182.081C387.176 181.918 387.57 181.68 387.904 181.367C388.238 181.055 388.49 180.668 388.66 180.206L392.261 180.611C392.034 181.562 391.601 182.393 390.962 183.104C390.329 183.807 389.52 184.354 388.533 184.744C387.545 185.128 386.416 185.32 385.145 185.32ZM402.204 162.564V189.634H394.501V186.683H398.496V165.526H394.501V162.564H402.204Z" fill="#FF565D"/>
</svg>
