<svg width="141" height="63" viewBox="0 0 141 63" fill="none" xmlns="http://www.w3.org/2000/svg">
<rect x="1.5" y="1.5" width="138" height="60" rx="18.5" stroke="#FF4B4B" stroke-width="3"/>
<path d="M34.805 21.1818H39.2688L44.6062 30.8338H44.8192L50.1566 21.1818H54.6204L46.6836 34.8608V43H42.7418V34.8608L34.805 21.1818ZM64.861 43V21.1818H79.0513V24.495H68.8134V30.4183H78.3162V33.7315H68.8134V39.6868H79.1365V43H64.861ZM102.382 27.1797C102.283 26.2493 101.864 25.5249 101.125 25.0064C100.394 24.4879 99.4419 24.2287 98.2701 24.2287C97.4462 24.2287 96.7395 24.353 96.15 24.6016C95.5605 24.8501 95.1096 25.1875 94.7971 25.6136C94.4846 26.0398 94.3248 26.5263 94.3176 27.0732C94.3176 27.5277 94.4206 27.9219 94.6266 28.2557C94.8397 28.5895 95.1273 28.8736 95.4895 29.108C95.8517 29.3352 96.253 29.527 96.6934 29.6832C97.1337 29.8395 97.5776 29.9709 98.025 30.0774L100.07 30.5888C100.894 30.7805 101.686 31.0398 102.446 31.3665C103.213 31.6932 103.899 32.1051 104.502 32.6023C105.113 33.0994 105.596 33.6996 105.951 34.4027C106.306 35.1058 106.484 35.9297 106.484 36.8743C106.484 38.1527 106.157 39.2784 105.504 40.2514C104.85 41.2173 103.906 41.9737 102.67 42.5206C101.441 43.0604 99.9533 43.3303 98.2061 43.3303C96.5087 43.3303 95.035 43.0675 93.785 42.5419C92.5421 42.0163 91.5691 41.2493 90.8659 40.2408C90.1699 39.2322 89.7935 38.0036 89.7367 36.5547H93.6252C93.682 37.3146 93.9164 37.9467 94.3283 38.451C94.7402 38.9553 95.2765 39.3317 95.937 39.5803C96.6046 39.8288 97.3503 39.9531 98.1742 39.9531C99.0336 39.9531 99.7864 39.8253 100.433 39.5696C101.086 39.3068 101.597 38.9446 101.967 38.483C102.336 38.0142 102.524 37.4673 102.531 36.8423C102.524 36.2741 102.357 35.8054 102.031 35.4361C101.704 35.0597 101.246 34.7472 100.656 34.4986C100.074 34.2429 99.3922 34.0156 98.611 33.8168L96.1287 33.1776C94.3319 32.7159 92.9114 32.0163 91.8674 31.0788C90.8304 30.1342 90.312 28.8807 90.312 27.3182C90.312 26.0327 90.66 24.907 91.356 23.9411C92.0591 22.9751 93.0144 22.2259 94.2218 21.6932C95.4292 21.1534 96.7963 20.8835 98.3233 20.8835C99.8716 20.8835 101.228 21.1534 102.393 21.6932C103.565 22.2259 104.485 22.968 105.152 23.9197C105.82 24.8643 106.164 25.951 106.186 27.1797H102.382Z" fill="#FF9A9E"/>
</svg>
